# xmcd
#
# Track frame offsets: 
#        150
#        14406
#        27922
#        43293
#        54765
#        74510
#        86486
#        101202
#        112439
#        126266
#        139365
#        154239
#
# Disc length: 2402 seconds
#
# Revision: 0
# Processed by: cddbd v1.5.2PL0 Copyright (c) Steve Scherf et al.
# Submitted via: ExactAudioCopyFreeDBPlugin 1.0
#
DISCID=b309600c
DTITLE=黃啟光 - 夜闌人靜3
DYEAR=1900
DGENRE=Country
TTITLE0=我要你忘了我
TTITLE1=春風帶來煩惱
TTITLE2=痴痴地等
TTITLE3=桃李爭春
TTITLE4=意難忘
TTITLE5=隴上一朵玫瑰
TTITLE6=問白雲
TTITLE7=黃葉舞秋風
TTITLE8=良夜不能留
TTITLE9=夜來香
TTITLE10=彩雲追月
TTITLE11=穎之頌
EXTD=
EXTT0=
EXTT1=
EXTT2=
EXTT3=
EXTT4=
EXTT5=
EXTT6=
EXTT7=
EXTT8=
EXTT9=
EXTT10=
EXTT11=
PLAYORDER=
